<svg width="100" height="100" viewBox="0 0 100 100" fill="none" xmlns="http://www.w3.org/2000/svg">
<g clip-path="url(#clip0_38244_11924)">
<g clip-path="url(#clip1_38244_11924)">
<g clip-path="url(#clip2_38244_11924)">
<mask id="mask0_38244_11924" style="mask-type:luminance" maskUnits="userSpaceOnUse" x="0" y="0" width="100" height="99">
<path d="M99.6523 0H0.810547V98.8417H99.6523V0Z" fill="white"/>
</mask>
<g mask="url(#mask0_38244_11924)">
<path d="M73.3604 93.2423C72.3594 93.2423 71.5363 94.0038 71.4392 94.9793H56.9116L54.6198 81.1783L57.1672 78.631C57.5292 78.269 57.7326 77.7778 57.7326 77.266C57.7326 76.754 57.5292 76.263 57.1672 75.9008L54.9132 73.6468H58.7648C62.9918 73.6468 66.9252 75.7448 69.2861 79.2591C69.8806 80.1441 71.0802 80.3794 71.9649 79.7851C72.8499 79.1904 73.0854 77.991 72.4908 77.1058C69.4356 72.5584 64.3605 69.8306 58.8946 69.7877C60.7648 67.7167 61.9055 64.975 61.9055 61.9716V59.1401C61.9055 52.7023 56.6681 47.4648 50.2302 47.4648C43.7924 47.4648 38.5549 52.7023 38.5549 59.1401V61.9716C38.5549 64.9758 39.6961 67.7178 41.5666 69.7891C32.5138 69.859 25.1699 77.2426 25.1699 86.3117V96.9097C25.1699 97.9758 26.0342 98.8403 27.1005 98.8403H73.3599C74.4262 98.8403 75.2905 97.9758 75.2905 96.9097V95.1727C75.2908 94.1067 74.4265 93.2423 73.3604 93.2423ZM50.2528 80.0853L47.4333 77.266L50.2528 74.4467L53.0723 77.266L50.2528 80.0853ZM49.2535 84.465C49.5599 84.6507 49.9059 84.7458 50.2526 84.7458C50.5994 84.7458 50.9455 84.6508 51.2516 84.465L52.9978 94.9793H47.5073L49.2535 84.465ZM42.4164 59.1401C42.4164 54.8314 45.9216 51.3258 50.2306 51.3258C54.5395 51.3258 58.0449 54.8311 58.0449 59.1401V61.9716C58.0449 66.2803 54.5395 69.7858 50.2306 69.7858C45.9216 69.7858 42.4164 66.2804 42.4164 61.9716V59.1401ZM29.0313 86.3117C29.0313 79.3281 34.7128 73.6468 41.6962 73.6468H45.5919L43.3379 75.9008C42.9759 76.263 42.7725 76.754 42.7725 77.266C42.7725 77.7778 42.9759 78.269 43.3379 78.631L45.8853 81.1783L43.5935 94.9793H29.0312L29.0313 86.3117Z" fill="#086646"/>
<path d="M39.998 2.14453C40.5695 2.14453 53.5695 2.62072 59.998 2.85882V23.5731L39.998 22.8588V2.14453Z" fill="#FDC040"/>
<path d="M85.7129 2.85547L75.7129 21.4269H97.1415L87.1415 3.56975L85.7129 2.85547Z" fill="#FDC040"/>
<path d="M39.998 2.14453C40.5695 2.14453 53.5695 2.62072 59.998 2.85882V23.5731L39.998 22.8588V2.14453Z" stroke="black" stroke-width="1.42857" stroke-linecap="round" stroke-linejoin="round"/>
<path d="M85.7129 2.85547L75.7129 21.4269H97.1415L87.1415 3.56975L85.7129 2.85547Z" stroke="black" stroke-width="1.42857" stroke-linecap="round" stroke-linejoin="round"/>
<path d="M25.4988 12.344C25.4988 5.53745 19.9611 0 13.1547 0C6.34838 0 0.810547 5.53765 0.810547 12.344C0.810547 19.1504 6.34819 24.6881 13.1546 24.6881C19.9609 24.6881 25.4988 19.1505 25.4988 12.344ZM4.67155 12.344C4.67155 7.6666 8.47695 3.861 13.1546 3.861C17.8322 3.861 21.6375 7.6666 21.6375 12.344C21.6375 17.0214 17.8322 20.8271 13.1546 20.8271C8.47695 20.8271 4.67155 17.0217 4.67155 12.344Z" fill="#086646"/>
<path d="M39.8191 24.6883H60.6464C61.7125 24.6883 62.5768 23.8237 62.5768 22.7577V1.9305C62.5768 0.864478 61.7125 0 60.6464 0H39.8191C38.753 0 37.8887 0.864478 37.8887 1.9305V22.7577C37.8887 23.8237 38.753 24.6883 39.8191 24.6883ZM41.7497 3.86101H58.7158V20.8273H41.7497V3.86101Z" fill="#086646"/>
<path d="M99.3945 21.0242L88.2552 1.73088C87.9105 1.13358 87.2732 0.765625 86.5835 0.765625C85.8936 0.765625 85.2563 1.13358 84.9116 1.73088L73.7723 21.0242C73.4275 21.6217 73.4275 22.3575 73.7723 22.9548C74.1172 23.5521 74.7545 23.9201 75.4442 23.9201H97.7226C98.4123 23.9201 99.0496 23.5521 99.3945 22.9548C99.7393 22.3575 99.7393 21.6217 99.3945 21.0242ZM78.7879 20.0591L86.5832 6.55713L94.3786 20.0591H78.7879Z" fill="#086646"/>
<path d="M50.2297 43.6773C51.296 43.6773 52.1603 42.8127 52.1603 41.7467V36.2384L52.2384 36.3475C52.6154 36.8743 53.2081 37.1548 53.81 37.1548C54.1988 37.1548 54.5916 37.0377 54.932 36.794C55.799 36.1735 55.9988 34.9677 55.3784 34.1007L51.7998 29.1001C51.4373 28.5935 50.8527 28.293 50.23 28.293C49.6071 28.293 49.0226 28.5935 48.66 29.1001L45.0814 34.1007C44.461 34.9677 44.6608 36.1735 45.5278 36.794C46.3948 37.4144 47.6006 37.2148 48.2213 36.3477L48.2993 36.2384V41.7467C48.2993 42.813 49.1636 43.6773 50.2297 43.6773Z" fill="#086646"/>
<path d="M34.3384 59.3124C34.3384 58.2463 33.4741 57.3818 32.408 57.3818H15.0977V36.2384L15.176 36.3475C15.553 36.8743 16.1455 37.1548 16.7475 37.1548C17.1363 37.1548 17.529 37.0377 17.8695 36.794C18.7365 36.1735 18.9363 34.9677 18.3158 34.1007L14.7373 29.1001C14.3747 28.5935 13.7902 28.293 13.1674 28.293C12.5446 28.293 11.9601 28.5935 11.5975 29.1001L8.01896 34.1007C7.39848 34.9677 7.5983 36.1735 8.46528 36.794C9.33208 37.4144 10.5381 37.2148 11.1587 36.3477L11.2367 36.2384V59.3124C11.2367 60.3784 12.101 61.2428 13.1672 61.2428H32.408C33.474 61.2428 34.3384 60.3785 34.3384 59.3124Z" fill="#086646"/>
<path d="M88.8681 29.1001C88.5055 28.5935 87.921 28.293 87.2982 28.293C86.6755 28.293 86.091 28.5935 85.7284 29.1001L82.1498 34.1007C81.5294 34.9677 81.7291 36.1735 82.5961 36.794C83.4631 37.4144 84.6691 37.2148 85.2895 36.3477L85.3677 36.2385V57.382H68.0575C66.9912 57.382 66.127 58.2465 66.127 59.3125C66.127 60.3785 66.9912 61.243 68.0575 61.243H87.2982C88.3644 61.243 89.2287 60.3785 89.2287 59.3125V36.2385L89.307 36.3477C89.684 36.8744 90.2767 37.155 90.8785 37.155C91.2674 37.155 91.66 37.0378 92.0005 36.7941C92.8675 36.1737 93.0674 34.968 92.447 34.101L88.8681 29.1001Z" fill="#086646"/>
<path d="M73.3622 88.4157C74.4284 88.4157 75.2926 87.5514 75.2926 86.4853C75.2926 85.4191 74.4284 84.5547 73.3622 84.5547C72.2959 84.5547 71.4316 85.4191 71.4316 86.4853C71.4316 87.5514 72.2959 88.4157 73.3622 88.4157Z" fill="#086646"/>
</g>
</g>
</g>
</g>
<defs>
<clipPath id="clip0_38244_11924">
<rect width="100" height="100" fill="white"/>
</clipPath>
<clipPath id="clip1_38244_11924">
<rect width="100" height="100" fill="white"/>
</clipPath>
<clipPath id="clip2_38244_11924">
<rect width="100" height="100" fill="white"/>
</clipPath>
</defs>
</svg>
