<svg width="100" height="100" viewBox="0 0 100 100" fill="none" xmlns="http://www.w3.org/2000/svg">
<g clip-path="url(#clip0_38244_11946)">
<g clip-path="url(#clip1_38244_11946)">
<g clip-path="url(#clip2_38244_11946)">
<mask id="mask0_38244_11946" style="mask-type:luminance" maskUnits="userSpaceOnUse" x="1" y="0" width="99" height="99">
<path d="M99.7307 0H1.08203V98.6487H99.7307V0Z" fill="white"/>
</mask>
<g mask="url(#mask0_38244_11946)">
<path d="M20.7148 23.5703V49.9989C25.7148 48.3322 38.0006 47.9989 47.1434 59.9989C49.2863 64.5227 52.7148 74.9989 49.2863 80.7132L59.2863 86.4275V43.5703L20.7148 23.5703Z" fill="#FDC040"/>
<path d="M98.7311 21.3346L60.3108 0.237642C59.7336 -0.0792141 59.0337 -0.0792141 58.4564 0.237642L43.9751 8.18918C43.6696 8.26971 43.3843 8.42325 43.148 8.64377L20.0369 21.3346C19.4206 21.6725 19.0374 22.3198 19.0374 23.0235V48.5392C15.1389 49.7585 11.5661 51.9086 8.59544 54.8801C0.852388 62.6224 -1.12176 74.4311 3.68303 84.2642C4.14965 85.2201 5.30344 85.6168 6.25928 85.1494C7.21587 84.6819 7.61175 83.5282 7.14513 82.5723C3.06287 74.2174 4.74047 64.1841 11.32 57.6046C15.4346 53.4899 20.9047 51.2238 26.7233 51.2238C32.5419 51.2238 38.012 53.4899 42.1266 57.6046C46.2404 61.7185 48.5067 67.1886 48.5067 73.0072C48.5067 78.8258 46.2404 84.2959 42.1259 88.4105C35.5464 94.9899 25.513 96.6676 17.1581 92.5854C16.2023 92.1179 15.0484 92.5146 14.5819 93.4704C14.1145 94.4271 14.5104 95.5808 15.467 96.0474C19.0487 97.7981 22.8917 98.6485 26.7067 98.6485C33.3623 98.6478 39.929 96.0572 44.8511 91.1351C47.1083 88.8779 48.892 86.2738 50.1541 83.4431L58.4564 88.0018C58.7454 88.1606 59.0646 88.2396 59.3837 88.2396C59.7027 88.2396 60.0227 88.1606 60.3108 88.0018L98.7311 66.9056C99.3476 66.5669 99.7306 65.9196 99.7306 65.2166V51.8266C99.7306 50.7625 98.8681 49.8999 97.8038 49.8999C96.7397 49.8999 95.8771 50.7625 95.8771 51.8266V64.0765L61.3164 83.0541V45.2569L72.7226 38.9935V48.9222C72.7226 49.6042 73.0823 50.2348 73.6686 50.5811C73.9711 50.7595 74.3098 50.8489 74.6493 50.8489C74.9684 50.8489 75.2883 50.7699 75.578 50.6104L83.811 46.0788C84.4267 45.7401 84.8083 45.0936 84.8083 44.3915V32.3569L95.8771 26.2794V36.4135C95.8771 37.4778 96.7397 38.3404 97.8038 38.3404C98.8681 38.3404 99.7306 37.4778 99.7306 36.4135V23.0235C99.7306 22.3205 99.3476 21.6725 98.7311 21.3346ZM59.3837 4.12422L93.8007 23.0235L82.944 28.9851L48.527 10.0858L59.3837 4.12422ZM59.3837 41.9221L24.9667 23.0235L36.2214 16.8429L70.6393 35.7415L59.3837 41.9221ZM74.6417 33.5438L40.2247 14.6452L44.5237 12.2842L78.9414 31.1828L74.6417 33.5438ZM44.8511 54.8801C40.0087 50.0376 33.5707 47.3711 26.7233 47.3711C25.428 47.3711 24.1486 47.4666 22.8909 47.6541V26.2794L57.4637 45.2638V83.0608L51.463 79.7658C52.0538 77.5906 52.3594 75.3222 52.3594 73.0072C52.3594 66.1598 49.6929 59.7218 44.8511 54.8801ZM80.9556 43.2526L76.576 45.6634V36.8779L80.9556 34.4732V43.2526Z" fill="#086646"/>
<path d="M97.8017 42.1836C97.2953 42.1836 96.7977 42.3899 96.4396 42.7482C96.0813 43.1063 95.875 43.6032 95.875 44.1103C95.875 44.6169 96.0813 45.1136 96.4396 45.4719C96.7977 45.8309 97.2953 46.0363 97.8017 46.0363C98.3083 46.0363 98.8057 45.8309 99.164 45.4719C99.5223 45.1136 99.7286 44.6169 99.7286 44.1103C99.7286 43.6032 99.5223 43.1063 99.164 42.7482C98.8057 42.3899 98.3083 42.1836 97.8017 42.1836Z" fill="#086646"/>
<path d="M20.2457 74.9333C20.7387 74.9333 21.2324 74.7452 21.608 74.3696C22.3605 73.6169 22.3605 72.3969 21.608 71.6443L20.2735 70.3092H31.6608C34.423 70.3092 36.6702 72.5565 36.6702 75.3186C36.6702 78.0807 34.423 80.3282 31.6608 80.3282H24.9134C23.8492 80.3282 22.9867 81.1906 22.9867 82.2549C22.9867 83.3183 23.8492 84.1809 24.9134 84.1809H31.6608C36.5477 84.1809 40.5238 80.2055 40.5238 75.3186C40.5238 70.4317 36.5477 66.4565 31.6608 66.4565H20.2735L21.608 65.1212C22.3605 64.3686 22.3605 63.1486 21.608 62.396C20.856 61.644 19.636 61.644 18.8834 62.396L14.2592 67.0202C13.5073 67.7727 13.5073 68.9927 14.2592 69.7455L18.8834 74.3687C19.2597 74.7452 19.7527 74.9333 20.2457 74.9333Z" fill="#086646"/>
<path d="M9.95918 91.7006C9.41127 91.7006 8.86711 91.4673 8.48704 91.0149L8.48328 91.0104C7.79838 90.196 7.90375 88.9813 8.7181 88.2964C9.53244 87.6107 10.7479 87.7162 11.4328 88.5304C12.117 89.3456 12.0139 90.5626 11.1995 91.2474C10.8375 91.5516 10.3972 91.7006 9.95918 91.7006Z" fill="#086646"/>
</g>
</g>
</g>
</g>
<defs>
<clipPath id="clip0_38244_11946">
<rect width="100" height="100" fill="white"/>
</clipPath>
<clipPath id="clip1_38244_11946">
<rect width="100" height="100" fill="white"/>
</clipPath>
<clipPath id="clip2_38244_11946">
<rect width="100" height="100" fill="white"/>
</clipPath>
</defs>
</svg>
