<svg width="99" height="99" viewBox="0 0 99 99" fill="none" xmlns="http://www.w3.org/2000/svg">
<mask id="mask0_38244_11877" style="mask-type:luminance" maskUnits="userSpaceOnUse" x="0" y="0" width="99" height="99">
<path d="M98.8417 0H0V98.8417H98.8417V0Z" fill="white"/>
</mask>
<g mask="url(#mask0_38244_11877)">
<path d="M62.8563 7.14062H48.5706L31.4277 24.2835L39.9992 29.2835L48.5706 20.7121L66.4277 38.5692L72.8563 46.4263L82.142 47.8549L86.4277 39.9978V12.8549L79.2849 7.14062H62.8563Z" fill="#FDC040"/>
<path d="M92.278 20.5532H88.4133L88.417 13.6441C88.4193 9.00558 84.648 5.22979 80.0087 5.22752L50.6771 5.21094H50.6734C49.0039 5.21094 47.4339 5.86098 46.2529 7.0419L2.46366 50.8311C0.874759 52.4201 0 54.5322 0 56.7795C0 59.0268 0.874759 61.1389 2.46366 62.7279L30.8813 91.1455C32.5214 92.7856 34.6759 93.6053 36.8296 93.6053C38.9841 93.6053 41.1386 92.7856 42.7787 91.1455L70.3487 63.5755C71.1029 62.8213 71.1029 61.5989 70.3487 60.8456C69.5946 60.0915 68.3721 60.0915 67.6181 60.8456L40.0481 88.4156C38.2737 90.19 35.3863 90.19 33.6119 88.4156L5.19426 59.9981C4.33459 59.1383 3.861 57.9951 3.861 56.7795C3.861 55.5639 4.33459 54.4206 5.19426 53.5609L48.9827 9.77251C49.4344 9.3208 50.0347 9.07194 50.6734 9.07194H50.675L80.0066 9.08854C82.5161 9.08928 84.5576 11.1329 84.556 13.6426L84.547 29.8196H75.8514C75.1026 29.8196 74.4246 29.5133 73.9344 29.0202C74.7421 28.6741 75.4993 28.1741 76.1576 27.5158C78.9319 24.7406 78.9319 20.2266 76.1576 17.4523C73.3824 14.6772 68.8684 14.6772 66.0933 17.4523C63.319 20.2266 63.319 24.7406 66.0933 27.5158C67.1219 28.5443 68.3903 29.1906 69.7199 29.4569C70.6647 31.9235 73.056 33.6806 75.8514 33.6806H84.5447L84.5394 42.9349C84.5394 43.5736 84.2906 44.1732 83.8389 44.6241L78.539 49.9246C77.7849 50.6788 77.7849 51.9012 78.539 52.6553C79.2924 53.4086 80.5147 53.4086 81.2689 52.6553L86.5694 47.3548C87.7488 46.1745 88.3997 44.6061 88.4004 42.9372L88.4057 33.6806H92.278C95.897 33.6806 98.8417 30.7366 98.8417 27.1169C98.8417 23.4979 95.897 20.5532 92.278 20.5532ZM68.8239 20.1822C69.4589 19.5472 70.2921 19.2305 71.1261 19.2305C71.9594 19.2305 72.7927 19.5479 73.4277 20.1822C73.6283 20.3835 73.7941 20.6059 73.9314 20.8405C71.8124 21.4898 70.1474 23.1858 69.5389 25.3229C69.2831 25.1803 69.0411 25.0031 68.8239 24.7859C67.5547 23.5161 67.5547 21.4513 68.8239 20.1822ZM92.278 29.8196H88.408L88.411 24.4142H92.278C93.7681 24.4142 94.9807 25.6268 94.9807 27.1169C94.9807 28.6069 93.7681 29.8196 92.278 29.8196Z" fill="#086646"/>
<path d="M31.1629 53.9175C31.4005 54.7718 32.1765 55.3307 33.021 55.3307C33.193 55.3307 33.3672 55.3081 33.5399 55.2598L53.3578 49.7435C54.3848 49.4577 54.9858 48.3929 54.7 47.3658C54.4142 46.3395 53.3502 45.7385 52.3223 46.0242L32.5045 51.5398C31.4782 51.8264 30.8772 52.8904 31.1629 53.9175Z" fill="#086646"/>
<path d="M39.8841 56.4652C38.8087 57.5407 38.2168 58.9697 38.2168 60.4907C38.2168 62.011 38.8087 63.44 39.8841 64.5154C40.9941 65.6247 42.4511 66.1797 43.9087 66.1797C45.3664 66.1797 46.8241 65.6247 47.9341 64.5154C50.1534 62.296 50.1534 58.6845 47.9341 56.4652C45.7148 54.246 42.1034 54.246 39.8841 56.4652ZM45.2035 61.7847C44.4894 62.4988 43.3281 62.4988 42.6139 61.7847C42.2678 61.4394 42.0778 60.9794 42.0778 60.49C42.0778 60.0012 42.2685 59.5412 42.6139 59.1951C42.9714 58.8384 43.4404 58.6597 43.9087 58.6597C44.3778 58.6597 44.8468 58.8384 45.2035 59.1951C45.9177 59.9092 45.9177 61.0714 45.2035 61.7847Z" fill="#086646"/>
<path d="M48.8922 44.9712C51.1115 42.7512 51.1115 39.1405 48.8922 36.9212C47.8169 35.8459 46.3871 35.2539 44.8668 35.2539C43.3465 35.2539 41.9168 35.8459 40.8422 36.9212C38.6229 39.1405 38.6229 42.7512 40.8422 44.9712C41.9522 46.0805 43.4092 46.6355 44.8668 46.6355C46.3245 46.6355 47.7822 46.0805 48.8922 44.9712ZM43.5721 39.651C43.9182 39.3049 44.3782 39.1149 44.8668 39.1149C45.3562 39.1149 45.8162 39.3049 46.1616 39.651C46.8758 40.3652 46.8758 41.5265 46.1616 42.2406C45.4482 42.9548 44.2862 42.9548 43.5721 42.2406C42.8586 41.5265 42.8586 40.3652 43.5721 39.651Z" fill="#086646"/>
<path d="M19.2014 49.9282C18.4474 49.1741 17.225 49.1741 16.4708 49.9282L10.9855 55.4135C10.6235 55.7755 10.4199 56.2664 10.4199 56.7784C10.4199 57.2905 10.6235 57.7814 10.9855 58.1434L35.466 82.6238C35.8423 83.0001 36.337 83.1887 36.8308 83.1887C37.3248 83.1887 37.8187 83.0001 38.1958 82.6238L74.7968 46.0219C75.551 45.2678 75.551 44.0454 74.7968 43.2914L50.3173 18.8117C49.9553 18.4497 49.4643 18.2461 48.9523 18.2461C48.4403 18.2461 47.9493 18.4497 47.5874 18.8117L27.3917 39.0072C26.6377 39.7614 26.6377 40.9838 27.3917 41.7378C28.1451 42.4912 29.3675 42.4912 30.1215 41.7378L48.9523 22.9072L70.7021 44.657L36.8308 78.5282L15.081 56.7784L19.2014 52.6581C19.9548 51.9039 19.9556 50.6822 19.2014 49.9282Z" fill="#086646"/>
<path d="M74.4442 54.8203C73.936 54.8203 73.4382 55.0269 73.0792 55.3859C72.7204 55.7449 72.5137 56.2433 72.5137 56.7507C72.5137 57.2583 72.7204 57.7567 73.0792 58.1157C73.4382 58.4747 73.936 58.6813 74.4442 58.6813C74.9517 58.6813 75.4494 58.4747 75.8091 58.1157C76.1681 57.7567 76.3747 57.2583 76.3747 56.7507C76.3747 56.2433 76.1681 55.7449 75.8091 55.3859C75.4494 55.0269 74.9517 54.8203 74.4442 54.8203Z" fill="#086646"/>
<path d="M24.6598 47.1978C25.0211 46.8389 25.2262 46.3426 25.2262 45.8329C25.2262 45.3253 25.0211 44.8292 24.6598 44.4679C24.3009 44.1091 23.8047 43.9023 23.2957 43.9023C22.7874 43.9023 22.2897 44.1091 21.9308 44.4679C21.5711 44.8269 21.3652 45.3253 21.3652 45.8329C21.3652 46.3426 21.5711 46.8389 21.9308 47.1978C22.2912 47.5591 22.7874 47.7633 23.2957 47.7633C23.8047 47.7633 24.3009 47.5591 24.6598 47.1978Z" fill="#086646"/>
</g>
</svg>
