<svg width="100" height="100" viewBox="0 0 100 100" fill="none" xmlns="http://www.w3.org/2000/svg">
<g clip-path="url(#clip0_38244_11893)">
<g clip-path="url(#clip1_38244_11893)">
<mask id="mask0_38244_11893" style="mask-type:luminance" maskUnits="userSpaceOnUse" x="0" y="0" width="100" height="99">
<path d="M99.1112 0H0.269531V98.8417H99.1112V0Z" fill="white"/>
</mask>
<g mask="url(#mask0_38244_11893)">
<path d="M63.5703 47.1425L68.5703 39.2854L75.7132 35.714C76.6656 35.4758 78.7132 35.1425 79.2846 35.714C79.856 36.2854 88.0942 47.3807 92.1417 52.8568L95.7132 59.2854C94.9989 60.714 93.4275 63.714 92.856 64.2854C92.2846 64.8568 86.9036 67.3807 84.2846 68.5711C82.856 68.8093 79.856 69.2854 79.2846 69.2854C78.7132 69.2854 71.9036 60.2378 68.5703 55.714L64.8203 49.2854L63.5703 47.1425Z" fill="#FDC040"/>
<path d="M79.2852 69.2852C78.7137 69.2852 71.9042 60.2376 68.5709 55.7137L64.8209 49.2852H62.1423H54.9994C54.2852 49.2852 50.7137 50.7137 49.2852 51.428L44.9994 53.5709C43.5709 54.2852 42.1423 55.7137 41.428 56.428C40.7137 57.1423 39.2852 59.2852 39.2852 59.9994C39.2852 60.7137 39.2852 62.1423 39.9994 62.8566C40.7137 63.5709 42.1423 64.2852 42.8566 64.2852H47.1423C48.2852 64.2852 51.428 62.8566 52.8566 62.1423C53.3327 62.3804 54.428 62.9994 54.9994 63.5709C55.5709 64.1423 60.4756 67.6184 62.8566 69.2852L68.5709 74.9994C69.5233 75.4756 71.5709 76.2852 72.1423 75.7137C72.7137 75.1423 74.7613 73.5709 75.7137 72.8566L77.8566 71.428L79.2852 69.2852Z" fill="#FDC040"/>
<path d="M22.1406 77.1445C22.1406 78.2873 24.0453 80.4777 24.9978 81.4302L29.9978 85.7159L32.8549 87.8587L35.7121 90.7159C36.6645 91.192 38.5692 92.2873 38.5692 92.8587C38.5692 93.4302 41.4263 94.0492 42.8549 94.2873C43.5692 93.8112 45.1406 92.7159 45.7121 92.1444C46.4263 91.4302 46.4263 91.4302 46.4263 90.0016C46.4263 88.573 46.4263 87.1445 45.7121 85.7159C44.9978 84.2873 44.9978 81.4302 44.2835 80.7159C43.5692 80.0016 40.7121 78.573 40.7121 77.8587C40.7121 77.1445 38.5692 74.2873 37.8549 73.573C37.1406 72.8587 35.7121 70.0016 34.9978 69.2873C34.2835 68.573 32.1406 67.1444 30.7121 67.8587C29.2835 68.573 24.9978 72.1445 24.2835 72.8587C23.7121 73.4302 22.6168 75.954 22.1406 77.1445Z" fill="#FDC040"/>
<path d="M35.7137 7.14453C39.9994 13.0969 52.2852 24.716 67.1423 23.5731L64.2852 32.1445L59.9994 35.716L46.428 40.0017L35.7137 36.4302L29.2852 25.0017L29.9994 15.716L33.5709 9.28739L35.7137 7.14453Z" fill="#FDC040"/>
<path d="M48.0896 25.677C47.3355 25.677 46.4108 25.5668 45.7776 24.8612C45.5575 24.6133 45.3646 24.3818 45.1776 24.1888C43.6693 22.6015 41.0712 24.8062 42.6455 26.8672L43.0253 27.3576C43.2729 27.6666 43.7189 28.0246 44.3573 28.4326C44.9795 28.8291 45.6729 29.1158 46.4436 29.2866V32.0095C46.4436 32.9463 47.2085 33.7179 48.1446 33.7179C49.0859 33.7179 49.8839 32.9463 49.8839 32.0095V29.2702C51.1171 28.9839 52.1739 28.3829 53.0381 27.4738C53.9075 26.564 54.3425 25.3573 54.3425 23.8526C54.3425 22.8276 54.1446 21.9735 53.7481 21.2843C53.3518 20.6009 52.8673 20.1216 52.2893 19.8513C51.7059 19.5812 51.0729 19.3442 50.3738 19.1405C49.6803 18.9366 49.0473 18.7932 48.4638 18.7052C47.8859 18.6222 47.4015 18.4458 47.0051 18.187C46.6086 17.9222 46.4106 17.5806 46.4106 17.1562C46.4106 15.1282 49.3831 15.376 50.6929 16.4783C52.6251 18.1042 54.7882 15.1282 52.5479 13.4472L52.2892 13.2156C52.1129 13.0781 51.8048 12.9071 51.3589 12.692C50.9185 12.4774 50.4229 12.3173 49.8838 12.2015V10.5538V9.83741C49.8838 8.90033 49.1185 8.12891 48.1773 8.12891C47.2415 8.12891 46.4711 8.90015 46.4711 9.83741V12.1741C45.2158 12.4221 44.1755 13.0451 43.4546 13.9652C42.7281 14.9023 42.3592 15.9386 42.3592 17.0955C42.3592 18.2586 42.6292 19.212 43.1683 19.9672C43.7078 20.7218 44.3629 21.251 45.1391 21.5598C45.9096 21.8685 46.6801 22.1166 47.4508 22.2982C48.2268 22.4859 48.8821 22.6895 49.4212 22.9266C49.9608 23.158 50.2305 23.4833 50.2305 23.9076C50.2306 25.087 49.5152 25.677 48.0896 25.677Z" fill="#086646"/>
<path d="M97.0689 55.7626L81.2063 35.4444C80.1379 34.0723 78.5179 33.2852 76.7622 33.2852C75.5229 33.2852 74.3498 33.6786 73.3652 34.4256L62.9841 42.339C61.7958 43.2446 61.0366 44.5589 60.8463 46.0396C60.8179 46.2603 60.8045 46.4803 60.8022 46.6993C56.8446 46.3994 52.7569 46.7009 48.7872 49.2812L48.6092 49.3967L38.5671 47.861C38.5876 47.5133 38.5765 47.1614 38.5306 46.8083C38.3392 45.3312 37.5813 44.0199 36.3953 43.1157L26.0116 35.2094C23.5788 33.349 20.0612 33.801 18.1695 36.2196L14.3881 41.0642C13.7263 41.9116 13.8772 43.135 14.7248 43.7964C15.5723 44.4582 16.7958 44.3072 17.4573 43.4597L21.2376 38.6169C21.8099 37.8852 22.9129 37.7412 23.6496 38.3047L34.0358 46.2127C34.3875 46.4809 34.6125 46.8702 34.6693 47.3092C34.7262 47.7487 34.6075 48.1839 34.3365 48.5319L18.4709 68.8533C17.9025 69.5833 16.7981 69.7259 16.0625 69.1682L5.68089 61.2539C5.32721 60.9844 5.10116 60.5937 5.04459 60.1542C4.98841 59.7166 5.10714 59.2844 5.3803 58.9354L8.0776 55.48C8.73919 54.6324 8.58841 53.4092 7.74073 52.7477C6.89324 52.0857 5.66989 52.2369 5.0081 53.0844L2.31236 56.5379C1.39401 57.7119 0.992853 59.1723 1.18281 60.6503C1.37297 62.1307 2.13243 63.445 3.32046 64.3504L13.7054 72.2674C14.7161 73.034 15.9105 73.4049 17.0971 73.4047C17.7833 73.4047 18.4662 73.2786 19.1101 73.0354L20.4541 74.8762C19.7235 76.2087 19.6096 77.8096 20.1968 79.3544C21.0359 81.5634 23.0161 83.061 25.1583 83.1323C25.2248 83.447 25.3168 83.7614 25.4425 84.0729C26.3061 86.2124 28.2778 87.6687 30.3965 87.7646C30.4062 87.8202 30.4135 87.8759 30.4249 87.9316C30.8281 89.8906 32.3309 91.5636 34.2535 92.1939C34.7432 92.3544 35.2371 92.4369 35.7261 92.4514C35.9133 93.2402 36.3048 94.002 36.9066 94.6707C37.8446 95.7134 39.2141 96.3806 40.7163 96.3803C41.8073 96.3803 42.9685 96.0263 44.0846 95.2104L46.2891 97.2712C47.4119 98.319 48.8255 98.8422 50.2255 98.8422C51.6456 98.842 53.0513 98.3037 54.1249 97.2292C54.7651 96.5884 55.2611 95.8262 55.5819 95.0236C56.1289 95.1899 56.6633 95.2686 57.1761 95.2686C58.6199 95.2684 59.8941 94.6587 60.8069 93.7184C61.5539 92.9492 62.0886 91.925 62.3251 90.8333C62.4041 90.8373 62.4831 90.8406 62.5623 90.8413C62.5819 90.8416 62.6009 90.8416 62.6205 90.8416C64.1561 90.8416 65.6293 90.2467 66.6699 89.2047C67.3989 88.475 67.9003 87.5767 68.1398 86.596C68.5112 86.6684 68.8842 86.7063 69.2563 86.7063C69.7249 86.7063 70.1923 86.6482 70.6528 86.5302C72.5301 86.0492 73.9798 84.5819 74.4359 82.701C74.8569 80.9654 74.4232 79.1372 73.2423 77.4753C76.2998 75.0154 77.5365 73.8037 78.9332 71.538C79.8872 72.2399 81.0486 72.6264 82.2761 72.6264C83.5189 72.6264 84.6943 72.2302 85.6716 71.4829L96.0595 63.5736C97.2445 62.6703 98.0025 61.3593 98.1941 59.8819C98.3855 58.4032 97.9866 56.9407 97.0689 55.7626ZM26.1768 78.8394C25.8786 79.1089 25.5893 79.2456 25.3171 79.2456C24.7579 79.2456 24.1078 78.6863 23.8363 77.9719C23.5899 77.323 23.7048 76.7809 24.1789 76.3599L24.1852 76.3544L24.1911 76.3493L30.7498 70.5196C31.2985 70.0329 31.8506 69.7756 32.3469 69.7756C33.0732 69.7756 33.6162 70.327 33.8133 70.8399C34.0242 71.3874 33.8973 71.8762 33.4386 72.291L32.2953 73.322L32.2923 73.3247C32.2866 73.3296 32.2813 73.3346 32.2756 73.3396C32.2348 73.3767 32.1925 73.4149 32.1508 73.4526L26.1768 78.8394ZM31.4782 83.4926C31.1826 83.7537 30.9009 83.8803 30.6176 83.8803C30.0266 83.8803 29.3396 83.325 29.0533 82.6154C28.7378 81.834 29.1122 81.4732 29.2305 81.3589C29.3066 81.286 29.3979 81.1984 29.4931 81.0966L29.4948 81.095L29.5149 81.0773C29.8893 80.7427 33.1872 77.763 34.7629 76.3393L34.8803 76.2334C35.4143 75.7647 35.9552 75.517 36.4453 75.517C37.2183 75.517 37.7938 76.1086 38.0013 76.658C38.2078 77.2043 38.0839 77.6824 37.6349 78.0779L37.2311 78.433C37.2281 78.4357 37.2251 78.4379 37.2222 78.4406L37.2193 78.4434L31.4782 83.4926ZM37.2809 87.6946C37.2541 87.7187 37.2288 87.744 37.2028 87.7686L36.7459 88.1807C36.3399 88.5476 35.9333 88.6476 35.4662 88.4943C34.8756 88.3006 34.3599 87.734 34.2391 87.1472C34.1339 86.6369 34.3382 86.164 34.8568 85.7069L35.5063 85.1393C35.5228 85.125 35.5369 85.1093 35.5528 85.0946L39.8079 81.3524C40.8276 80.451 41.8375 80.3607 42.5096 81.1122C42.6042 81.218 43.4058 82.1709 42.4272 83.0549L39.8139 85.413C39.7859 85.4377 39.7575 85.4599 39.7298 85.4852C39.7199 85.4943 39.7118 85.5047 39.7021 85.5136L37.3108 87.6713C37.3012 87.6796 37.2903 87.686 37.2809 87.6946ZM39.8013 92.0664C39.5962 91.8387 39.2003 91.2482 39.8496 90.6246L42.4566 88.2723C42.6539 88.1036 42.8441 87.9697 43.0221 87.8779C43.0301 87.8736 43.0385 87.8693 43.0465 87.8652C44.0973 87.3039 44.6668 87.9582 44.8166 88.1719C45.0091 88.4467 45.2438 88.9867 44.6536 89.5169L42.8676 91.1223C42.8608 91.1283 42.8542 91.1344 42.8475 91.1404L42.0732 91.8363C40.8008 92.9784 40.0125 92.3016 39.8013 92.0664ZM70.6519 81.7833C70.5322 82.2764 70.1803 82.6319 69.6863 82.7586C68.8673 82.9682 67.8308 82.5134 66.8816 81.5396C66.8105 81.4609 66.7375 81.3833 66.6612 81.3082L59.3126 74.044C58.5476 73.2884 57.3151 73.2954 56.5593 74.0602C55.8035 74.8247 55.8105 76.0574 56.5751 76.8132L63.9119 84.0654C63.9242 84.0784 63.9366 84.0912 63.9486 84.1042C64.2418 84.4056 64.4048 84.8083 64.4066 85.2443C64.4083 85.7047 64.2338 86.134 63.9149 86.4533C63.6003 86.7684 63.1299 86.9482 62.6215 86.9482C62.6143 86.9482 62.6073 86.9482 62.6002 86.9479C62.1501 86.9437 61.7392 86.7929 61.4501 86.5297C61.3282 86.3723 61.1956 86.2196 61.0498 86.0732L55.6775 80.6943C54.9176 79.9339 53.6849 79.933 52.9242 80.6926C52.1635 81.4523 52.1628 82.6849 52.9223 83.4456L58.0172 88.5467C58.0786 88.6366 58.1468 88.7232 58.2251 88.8042L58.4419 89.0277C58.7212 89.5596 58.5481 90.4556 58.0133 91.0066C57.1882 91.8563 56.0269 91.1072 55.1996 90.3302L52.8989 88.1643C52.1161 87.4273 50.8838 87.4646 50.1469 88.2473C49.4099 89.0303 49.4471 90.2624 50.2299 90.9994L51.9875 92.6537C51.9918 92.6577 51.9952 92.6622 51.9995 92.666C52.0396 92.7036 52.1001 92.7603 52.1031 92.9566C52.1106 93.4129 51.8093 94.0384 51.3705 94.4777C50.7299 95.1187 49.6649 95.0959 48.9469 94.4257L47.0203 92.625L47.2558 92.4132C49.1662 90.6977 49.4745 88.0354 48.0056 85.9384C47.5276 85.256 46.9289 84.7259 46.2573 84.358C47.2041 82.491 46.9393 80.2242 45.4113 78.5163C44.5495 77.5526 43.3319 76.8944 41.9728 76.7487C41.9339 76.2603 41.8271 75.768 41.6438 75.2827C40.9825 73.5317 39.5123 72.2429 37.7822 71.7966C37.8542 71.0209 37.7471 70.2202 37.4475 69.4412C36.6281 67.3124 34.5786 65.8819 32.3471 65.8819C30.8838 65.8819 29.4382 66.4783 28.1649 67.6077L23.1943 72.0259L22.1018 70.5296L36.9215 51.5482L43.6971 52.5844L42.6721 53.2494C37.1816 56.8116 36.7798 60.9543 38.2346 63.6437C39.3989 65.7964 41.7226 67.0269 44.1892 67.0269C45.2046 67.0267 46.2448 66.8182 47.2376 66.3794C47.2639 66.3676 47.2899 66.3556 47.3155 66.3429L52.4483 63.7979L55.4113 66.4959C55.4143 66.4984 55.4173 66.5004 55.4201 66.503C55.4229 66.5056 55.4253 66.5083 55.4282 66.511L69.1236 78.691C70.2971 79.7344 70.8685 80.8904 70.6519 81.7833ZM70.4882 74.6943L58.0242 63.6093L54.0859 60.0236C53.4929 59.4833 52.6289 59.3622 51.9105 59.7187L45.6278 62.834C43.9209 63.5682 42.2419 62.8696 41.6589 61.7917C40.8578 60.3107 42.0578 58.289 44.7909 56.516L50.9078 52.5467C54.2243 50.3907 57.7035 50.2244 62.4628 50.7767L76.2436 68.4344C74.7893 71.046 74.0171 71.875 70.4882 74.6943ZM94.3326 59.3813C94.2759 59.8197 94.0508 60.2089 93.6998 60.4764L83.3095 68.3874C82.9363 68.673 82.5418 68.7329 82.2765 68.7329C81.7303 68.7327 81.2289 68.4923 80.9023 68.0746L65.0423 47.753C64.7705 47.4053 64.6518 46.9732 64.7081 46.5357C64.7646 46.096 64.9905 45.705 65.3443 45.4354L75.7223 37.5243C76.0989 37.2389 76.4953 37.1789 76.7619 37.1789C77.3086 37.1789 77.8088 37.4184 78.1358 37.8383L93.9983 58.1566C94.2709 58.5069 94.3898 58.9416 94.3326 59.3813Z" fill="#086646"/>
<path d="M38.2663 39.5489C41.3229 41.1981 44.7756 42.0699 48.2513 42.0699C59.8385 42.0699 69.2656 32.6323 69.2656 21.032C69.2656 12.9359 64.539 5.46989 57.2258 2.01177C54.4085 0.676834 51.389 0 48.2513 0C36.6668 0 27.2422 9.43494 27.2422 21.032C27.2422 28.7669 31.4652 35.8614 38.2663 39.5489ZM48.2513 3.89344C50.8078 3.89344 53.2663 4.44421 55.5599 5.5307C61.5203 8.34904 65.3719 14.4339 65.3719 21.032C65.3719 30.4856 57.6916 38.1764 48.2515 38.1764C45.419 38.1764 42.6058 37.466 40.1189 36.1243C34.5779 33.1199 31.1358 27.3369 31.1358 21.032C31.1358 11.5819 38.8136 3.89344 48.2513 3.89344Z" fill="#086646"/>
<path d="M10.0177 49.7891C10.3762 50.0752 10.805 50.2142 11.2308 50.2142C11.8026 50.2142 12.3692 49.9634 12.7536 49.4815L12.7756 49.4539C13.4463 48.6137 13.3086 47.3887 12.4683 46.7181C11.6279 46.0478 10.4028 46.1848 9.73237 47.0255L9.71036 47.0532C9.0397 47.8935 9.17734 49.1184 10.0177 49.7891Z" fill="#086646"/>
</g>
</g>
</g>
<defs>
<clipPath id="clip0_38244_11893">
<rect width="100" height="100" fill="white"/>
</clipPath>
<clipPath id="clip1_38244_11893">
<rect width="100" height="100" fill="white"/>
</clipPath>
</defs>
</svg>
