<svg width="100" height="100" viewBox="0 0 100 100" fill="none" xmlns="http://www.w3.org/2000/svg">
<g clip-path="url(#clip0_38244_11962)">
<g clip-path="url(#clip1_38244_11962)">
<mask id="mask0_38244_11962" style="mask-type:luminance" maskUnits="userSpaceOnUse" x="1" y="0" width="99" height="99">
<path d="M100.002 0H1.16016V98.8417H100.002V0Z" fill="white"/>
</mask>
<g mask="url(#mask0_38244_11962)">
<path d="M22.7315 69.1772C21.9141 68.4925 20.6965 68.6002 20.0119 69.4175L15.1848 75.1808L13.4401 73.7026C12.6266 73.0135 11.4087 73.1142 10.7193 73.9278C10.0301 74.7412 10.1309 75.9595 10.9444 76.6486L14.1703 79.3816C14.5202 79.6782 14.9629 79.8392 15.4182 79.8392C15.4729 79.8392 15.5278 79.8368 15.5828 79.8321C16.0948 79.7882 16.5683 79.5422 16.8982 79.1482L22.9722 71.8966C23.6563 71.0794 23.5486 69.8619 22.7315 69.1772Z" fill="#086646"/>
<path d="M62.8604 31.4258V37.1401C62.8604 37.8544 60.0033 39.9972 59.289 39.9972H46.4319C45.2413 39.7591 42.8604 39.7115 42.8604 41.4258V46.4258L40.0033 47.1401C39.289 47.6162 37.8604 48.7115 37.8604 49.2829C37.8604 49.9972 37.1461 51.4258 37.8604 52.1401C38.5747 52.8544 40.0031 53.5686 40.7174 54.2829C41.4317 54.9972 42.8604 54.2829 42.8604 54.9972V57.8544C42.8604 58.4258 43.3366 59.9972 43.5746 60.7115C44.0507 61.1876 45.146 62.1401 45.7174 62.1401C46.2889 62.1401 47.3841 62.6162 47.8603 62.8544V64.9972C47.8603 65.5686 48.8127 67.1401 49.2889 67.8544C50.0031 68.3305 51.7174 69.2829 52.8603 69.2829C54.2889 69.2829 66.4317 70.7115 68.5746 70.7115C70.2889 70.7115 75.9556 69.7591 78.5746 69.2829L83.5746 65.7115L90.7174 64.2829H95.0031L97.8603 62.8544V59.2829L98.5746 44.2829L97.146 41.4258H92.146C91.5746 41.4258 89.0507 39.5211 87.8603 38.5686C86.9079 37.8544 85.0031 36.2829 85.0031 35.7115C85.0031 35.1401 80.7174 33.0925 78.5746 32.1401L75.7174 31.4258H68.5746H65.0031H62.8604Z" fill="#FDC040"/>
<path d="M37.1445 11.4258V28.5686L42.859 26.4258L45.0017 24.9972L52.1445 28.5686L54.2874 26.4258L53.5731 12.8544L51.4302 11.4258H44.2874H37.1445Z" fill="#FDC040"/>
<path d="M62.859 31.4258C62.859 33.0925 62.859 36.5686 62.859 37.1401M62.859 31.4258V37.1401M62.859 31.4258H65.0017M62.859 37.1401C62.859 37.8544 60.0018 39.9972 59.2875 39.9972M65.0017 31.4258H68.5731H75.716L78.5731 32.1401C80.716 33.0925 85.0017 35.1401 85.0017 35.7115C85.0017 36.2829 86.9064 37.8544 87.8588 38.5686C89.0492 39.5211 91.5731 41.4258 92.1445 41.4258M65.0017 31.4258H62.1445M59.2875 39.9972C58.7161 39.9972 50.478 39.9972 46.4304 39.9972M59.2875 39.9972H46.4304M46.4304 39.9972C45.2398 39.7591 42.859 39.7115 42.859 41.4258M42.859 41.4258C42.859 43.1401 42.859 45.4734 42.859 46.4258M42.859 41.4258V46.4258M42.859 46.4258L40.0018 47.1401C39.2875 47.6162 37.859 48.7115 37.859 49.2829C37.859 49.9972 37.1447 51.4258 37.859 52.1401C38.5732 52.8544 40.0017 53.5686 40.716 54.2829C41.4302 54.9972 42.859 54.2829 42.859 54.9972M42.859 54.9972C42.859 55.7115 42.859 57.1401 42.859 57.8543M42.859 54.9972V57.8543M42.859 57.8543C42.859 58.4258 43.3351 59.9972 43.5731 60.7115C44.0492 61.1876 45.1445 62.1401 45.716 62.1401C46.2874 62.1401 47.3827 62.6162 47.8588 62.8543M47.8588 62.8543C47.8588 63.3305 47.8588 64.4258 47.8588 64.9972M47.8588 62.8543V64.9972M47.8588 64.9972C47.8588 65.5686 48.8112 67.1401 49.2874 67.8543C50.0017 68.3305 51.716 69.2829 52.8588 69.2829C54.2874 69.2829 66.4302 70.7115 68.5731 70.7115C70.2874 70.7115 75.9541 69.7591 78.5731 69.2829L83.5731 65.7115L90.716 64.2829H95.0017L97.8588 62.8543V59.2829L98.5731 44.2829L97.1445 41.4258M97.1445 41.4258C95.716 41.4258 92.716 41.4258 92.1445 41.4258M97.1445 41.4258H92.1445M37.1445 11.4258C37.1445 11.9972 37.1445 23.0925 37.1445 28.5686M37.1445 11.4258H44.2874H51.4302L53.5731 12.8544L54.2874 26.4258L52.1445 28.5686L45.0017 24.9972L42.859 26.4258L37.1445 28.5686M37.1445 11.4258V28.5686" stroke="black" stroke-width="1.42857" stroke-linecap="round" stroke-linejoin="round"/>
<path d="M95.9135 39.402H93.1389C90.815 39.2946 88.946 37.3153 86.7837 35.0249C85.3387 33.4946 83.7916 31.856 81.9279 30.6416V14.1388C81.9279 11.2321 79.563 8.86719 76.6564 8.86719H13.6885C10.7818 8.86719 8.41711 11.2321 8.41711 14.1388V27.5303C8.41711 28.5966 9.2814 29.4609 10.3476 29.4609C11.4138 29.4609 12.2781 28.5966 12.2781 27.5303V14.1388C12.2781 13.3743 12.9241 12.7282 13.6885 12.7282H35.0513V29.8087C35.0513 30.5104 35.4322 31.157 36.0459 31.4973C36.3373 31.6589 36.6597 31.7391 36.9816 31.7391C37.3373 31.7391 37.6925 31.641 38.0049 31.4457L45.1749 26.9644L52.3395 31.4456C52.9347 31.8176 53.6847 31.8377 54.2987 31.4974C54.9129 31.1573 55.2937 30.5109 55.2937 29.8089V12.7282H76.6567C77.4212 12.7282 78.0672 13.3741 78.0672 14.1388V29.0049C77.4392 28.8734 76.7799 28.7944 76.0827 28.782C76.0713 28.7819 76.0602 28.7819 76.0487 28.7819H71.158H67.3595H65.1716C65.1615 28.7819 65.1517 28.7819 65.1416 28.782C62.8145 28.8181 61.6186 29.8731 61.0252 30.7517C60.1042 32.1154 60.0189 33.9624 60.7842 35.9501C60.9623 36.4143 61.1795 36.8533 61.4297 37.2659H46.7909C43.6457 37.2659 41.0867 39.8247 41.0867 42.9699C41.0867 43.6166 41.1949 44.2386 41.3936 44.8186H40.8812C37.736 44.8186 35.1772 47.3774 35.1772 50.5229C35.1772 53.6681 37.736 56.227 40.8812 56.227H41.3922C41.1943 56.8054 41.0866 57.4254 41.0866 58.0703C41.0866 61.1171 43.4832 63.6141 46.4883 63.772C46.2886 64.3527 46.18 64.9753 46.18 65.6231C46.18 68.7686 48.7389 71.3274 51.8842 71.3274H75.8019C76.6256 71.3274 77.3755 71.2267 78.0666 71.054V77.1031C78.0666 77.8707 77.4206 78.519 76.6562 78.519H31.9399C32.3186 77.1703 32.5256 75.7504 32.5256 74.2823C32.5256 65.6344 25.4903 58.5989 16.8426 58.5989C15.2552 58.5989 13.7227 58.8379 12.2775 59.2786V44.8869C12.2775 43.8207 11.4132 42.9564 10.347 42.9564C9.28081 42.9564 8.41653 43.8207 8.41653 44.8869V61.0651C4.05804 63.8543 1.16016 68.7347 1.16016 74.2824C1.16016 82.9334 8.19548 89.9714 16.8432 89.9714C22.531 89.9714 27.5207 86.9261 30.2706 82.3801H76.6567C79.5633 82.3801 81.9282 80.013 81.9282 77.1033V69.1549C82.3543 68.8501 82.7619 68.5377 83.157 68.233C84.8619 66.9193 86.3342 65.7847 88.6785 65.7847H95.9136C98.1679 65.7847 100.002 63.9531 100.002 61.7017V43.4906C100.002 41.2359 98.1679 39.402 95.9135 39.402ZM51.4327 26.3243L46.199 23.0507C45.5729 22.6594 44.7785 22.6593 44.152 23.0506L38.9123 26.3254V12.7282H51.4327V26.3243ZM16.8432 86.1104C10.3244 86.1104 5.02115 80.8044 5.02115 74.2824C5.02115 67.7636 10.3244 62.46 16.8432 62.46C23.3619 62.46 28.6652 67.7636 28.6652 74.2824C28.6652 80.8044 23.3619 86.1104 16.8432 86.1104ZM96.1409 61.7017C96.1409 61.8201 96.0347 61.9237 95.9135 61.9237H88.6783C85.0186 61.9237 82.7776 63.6509 80.8002 65.1747C79.1386 66.4553 77.8262 67.4666 75.802 67.4666H51.8844C50.8683 67.4666 50.0415 66.6397 50.0415 65.6234C50.0415 64.607 50.8683 63.7801 51.8844 63.7801H58.2926C59.3589 63.7801 60.2232 62.9159 60.2232 61.8496C60.2232 60.7834 59.3589 59.9191 58.2926 59.9191H46.791C45.7746 59.9191 44.948 59.09 44.948 58.0704C44.948 57.054 45.7749 56.2273 46.791 56.2273H58.2926C59.3589 56.2273 60.2232 55.363 60.2232 54.2967C60.2232 53.2306 59.3589 52.3663 58.2926 52.3663H40.8815C39.8652 52.3663 39.0383 51.5394 39.0383 50.523C39.0383 49.5066 39.8652 48.6797 40.8815 48.6797H58.2926C59.3589 48.6797 60.2232 47.8154 60.2232 46.7493C60.2232 45.683 59.3589 44.8187 58.2926 44.8187H46.791C45.7746 44.8187 44.948 43.9894 44.948 42.9701C44.948 41.9537 45.7749 41.127 46.791 41.127H68.3317H72.5216H75.3204C76.3866 41.127 77.2509 40.2627 77.2509 39.1966C77.2509 38.1303 76.3866 37.266 75.3204 37.266H72.5216H68.3317C66.566 37.266 65.0183 36.2064 64.3882 34.565C64.021 33.611 64.121 33.067 64.2252 32.9126C64.3299 32.7577 64.7069 32.6521 65.188 32.643H71.158H76.031C79.2865 32.7081 81.5647 35.1213 83.9767 37.6757C86.4999 40.3481 89.1089 43.1114 93.0246 43.2616C93.0492 43.2626 93.0739 43.263 93.0986 43.263H95.9139C96.037 43.263 96.1413 43.3671 96.1413 43.4903L96.1409 61.7017Z" fill="#086646"/>
<path d="M10.3485 38.1438C11.4147 38.1438 12.279 37.2741 12.279 36.2078C12.279 35.1416 11.4147 34.2773 10.3485 34.2773C9.28227 34.2773 8.41797 35.1416 8.41797 36.2078V36.2189C8.41797 37.2849 9.28227 38.1438 10.3485 38.1438Z" fill="#086646"/>
</g>
</g>
</g>
<defs>
<clipPath id="clip0_38244_11962">
<rect width="100" height="100" fill="white"/>
</clipPath>
<clipPath id="clip1_38244_11962">
<rect width="100" height="100" fill="white"/>
</clipPath>
</defs>
</svg>
